# xmcd
#
# Track frame offsets: 
#        150
#        17653
#        35429
#        58248
#        82862
#        98264
#        124412
#        152368
#        168682
#        188782
#        207008
#        224648
#        238860
#        257399
#        284045
#        308154
#
# Disc length: 4313 seconds
#
# Revision: 1
# Processed by: cddbd v1.5.2PL0 Copyright (c) Steve Scherf et al.
# Submitted via: ExactAudioCopyFreeDBPlugin 1.0
#
DISCID=db10d710
DTITLE=T.I. - Trouble Man: Heavy Is the Head
DYEAR=2012
DGENRE=Hip-Hop
TTITLE0=The Introduction
TTITLE1=G Season (feat. Meek Mill)
TTITLE2=Trap Back Jumpin
TTITLE3=Wildside (feat. A$AP Rocky)
TTITLE4=Ball (feat. Lil Wayne)
TTITLE5=Sorry (feat. André 3000)
TTITLE6=Can You Learn (feat. R. Kelly)
TTITLE7=Go Get It
TTITLE8=Guns And Roses (feat. P!nk)
TTITLE9=The Way We Ride
TTITLE10=Cruisin'
TTITLE11=Addresses
TTITLE12=Hello (feat. Ceelo Green)
TTITLE13=Who Want Some
TTITLE14=Wonderful Life (feat. Akon)
TTITLE15=Hallelujah
EXTD=
EXTT0=
EXTT1=
EXTT2=
EXTT3=
EXTT4=
EXTT5=
EXTT6=
EXTT7=
EXTT8=
EXTT9=
EXTT10=
EXTT11=
EXTT12=
EXTT13=
EXTT14=
EXTT15=
PLAYORDER=
